<svg width="43" height="29" viewBox="0 0 43 29" fill="none" xmlns="http://www.w3.org/2000/svg">
<path d="M39.9286 0H3.07143C2.25683 0 1.47561 0.295701 0.8996 0.822053C0.323596 1.34841 0 2.06229 0 2.80667V25.26C0 26.0044 0.323596 26.7183 0.8996 27.2446C1.47561 27.771 2.25683 28.0667 3.07143 28.0667H39.9286C40.7432 28.0667 41.5244 27.771 42.1004 27.2446C42.6764 26.7183 43 26.0044 43 25.26V2.80667C43 2.06229 42.6764 1.34841 42.1004 0.822053C41.5244 0.295701 40.7432 0 39.9286 0ZM36.55 2.80667L21.5 12.3213L6.45 2.80667H36.55ZM3.07143 25.26V4.0837L20.6246 15.1841C20.8817 15.347 21.1871 15.4344 21.5 15.4344C21.8129 15.4344 22.1183 15.347 22.3754 15.1841L39.9286 4.0837V25.26H3.07143Z" fill="black"/>
</svg>
