<svg width="43" height="41" viewBox="0 0 43 41" fill="none" xmlns="http://www.w3.org/2000/svg">
<path fill-rule="evenodd" clip-rule="evenodd" d="M12.6361 0.120687C14.9288 0.021943 15.6598 0 21.5 0C27.3402 0 28.0712 0.0237716 30.3619 0.120687C32.6526 0.217602 34.2163 0.559547 35.5845 1.05509C37.0171 1.56161 38.3169 2.35339 39.3919 3.3774C40.4865 4.38129 41.3308 5.59547 41.8703 6.93765C42.4019 8.21766 42.7655 9.68053 42.871 11.82C42.9765 13.9686 43 14.6525 43 20.1144C43 25.5783 42.9746 26.2621 42.871 28.4071C42.7674 30.5465 42.4019 32.0094 41.8703 33.2894C41.3308 34.6318 40.485 35.848 39.3919 36.8533C38.3169 37.8773 37.0171 38.6673 35.5845 39.172C34.2163 39.6693 32.6526 40.0095 30.3658 40.1082C28.0712 40.2069 27.3402 40.2289 21.5 40.2289C15.6598 40.2289 14.9288 40.2051 12.6361 40.1082C10.3493 40.0113 8.78568 39.6693 7.4175 39.172C5.98271 38.6672 4.68274 37.876 3.60809 36.8533C2.51429 35.8488 1.66784 34.6332 1.12777 33.2912C0.598091 32.0112 0.234545 30.5484 0.129 28.4089C0.0234545 26.2603 0 25.5764 0 20.1144C0 14.6506 0.0254091 13.9667 0.129 11.8236C0.232591 9.68053 0.598091 8.21766 1.12777 6.93765C1.66864 5.59562 2.51573 4.38004 3.61005 3.37557C4.68317 2.35248 5.98183 1.56059 7.41555 1.05509C8.78373 0.559547 10.3474 0.21943 12.6342 0.120687H12.6361ZM30.188 3.74129C27.9207 3.64437 27.2405 3.62426 21.5 3.62426C15.7595 3.62426 15.0793 3.64437 12.812 3.74129C10.7148 3.83089 9.57727 4.1582 8.81891 4.43432C7.81623 4.80004 7.09891 5.23341 6.34641 5.93742C5.63309 6.58666 5.08413 7.37703 4.73977 8.25058C4.44464 8.96007 4.09477 10.0243 3.999 11.9864C3.89541 14.1075 3.87391 14.7439 3.87391 20.1144C3.87391 25.485 3.89541 26.1213 3.999 28.2425C4.09477 30.2046 4.44464 31.2688 4.73977 31.9783C5.08377 32.8505 5.633 33.6423 6.34641 34.2915C7.04027 34.9589 7.88659 35.4727 8.81891 35.7946C9.57727 36.0707 10.7148 36.398 12.812 36.4876C15.0793 36.5845 15.7575 36.6046 21.5 36.6046C27.2425 36.6046 27.9207 36.5845 30.188 36.4876C32.2852 36.398 33.4227 36.0707 34.1811 35.7946C35.1838 35.4289 35.9011 34.9955 36.6536 34.2915C37.367 33.6423 37.9162 32.8505 38.2602 31.9783C38.5554 31.2688 38.9052 30.2046 39.001 28.2425C39.1046 26.1213 39.1261 25.485 39.1261 20.1144C39.1261 14.7439 39.1046 14.1075 39.001 11.9864C38.9052 10.0243 38.5554 8.96007 38.2602 8.25058C37.8693 7.31251 37.4061 6.64142 36.6536 5.93742C35.9596 5.27011 35.1148 4.75654 34.1811 4.43432C33.4227 4.1582 32.2852 3.83089 30.188 3.74129ZM18.7539 26.3152C20.2875 26.9125 21.9952 26.9931 23.5854 26.5432C25.1755 26.0934 26.5494 25.1411 27.4723 23.8489C28.3953 22.5566 28.8101 21.0047 28.6459 19.4582C28.4817 17.9116 27.7487 16.4664 26.572 15.3693C25.822 14.668 24.915 14.131 23.9165 13.7969C22.9179 13.4629 21.8527 13.3402 20.7973 13.4376C19.742 13.535 18.7229 13.85 17.8133 14.3601C16.9038 14.8702 16.1265 15.5626 15.5373 16.3875C14.9481 17.2124 14.5617 18.1492 14.406 19.1306C14.2503 20.1119 14.3291 21.1134 14.6367 22.0628C14.9443 23.0123 15.4731 23.8861 16.185 24.6214C16.897 25.3567 17.7743 25.9352 18.7539 26.3152ZM13.6857 12.8038C14.7119 11.8437 15.9302 11.0821 17.2709 10.5626C18.6117 10.043 20.0488 9.77557 21.5 9.77557C22.9512 9.77557 24.3883 10.043 25.7291 10.5626C27.0698 11.0821 28.2881 11.8437 29.3143 12.8038C30.3405 13.7638 31.1545 14.9036 31.7098 16.1579C32.2652 17.4123 32.5511 18.7567 32.5511 20.1144C32.5511 21.4722 32.2652 22.8166 31.7098 24.071C31.1545 25.3253 30.3405 26.4651 29.3143 27.4251C27.2418 29.364 24.4309 30.4533 21.5 30.4533C18.5691 30.4533 15.7582 29.364 13.6857 27.4251C11.6133 25.4862 10.449 22.8565 10.4489 20.1144C10.4489 17.3724 11.6133 14.7427 13.6857 12.8038ZM35.002 11.3153C35.2563 11.0909 35.4599 10.821 35.6007 10.5216C35.7415 10.2223 35.8167 9.89954 35.8218 9.57252C35.8269 9.2455 35.7618 8.92084 35.6304 8.61778C35.4989 8.31471 35.3038 8.0394 35.0567 7.80813C34.8095 7.57687 34.5152 7.39436 34.1912 7.2714C33.8673 7.14845 33.5203 7.08755 33.1707 7.09232C32.8212 7.09709 32.4762 7.16742 32.1562 7.29916C31.8363 7.4309 31.5478 7.62135 31.3079 7.85926C30.8414 8.32195 30.586 8.93652 30.5959 9.57252C30.6058 10.2085 30.8802 10.8159 31.361 11.2656C31.8417 11.7154 32.4909 11.9722 33.1707 11.9814C33.8505 11.9907 34.5074 11.7518 35.002 11.3153Z" fill="black"/>
</svg>
