<svg width="43" height="43" viewBox="0 0 43 43" fill="none" xmlns="http://www.w3.org/2000/svg">
<path fill-rule="evenodd" clip-rule="evenodd" d="M31.352 25.7678C30.8155 25.5008 28.1853 24.2144 27.6956 24.0352C27.206 23.8579 26.8495 23.7701 26.4912 24.304C26.1348 24.8343 25.1104 26.0347 24.799 26.3895C24.4857 26.746 24.1743 26.789 23.6396 26.5239C23.1049 26.2551 21.3802 25.6943 19.3369 23.8812C17.7472 22.4693 16.6725 20.726 16.361 20.1921C16.0496 19.66 16.3268 19.3715 16.5951 19.1064C16.8363 18.8681 17.1297 18.4847 17.398 18.1747C17.6662 17.863 17.7544 17.6408 17.9327 17.2843C18.1127 16.9295 18.0227 16.6195 17.8877 16.3526C17.7544 16.0856 16.6851 13.4644 16.2386 12.3984C15.8047 11.361 15.3637 11.5026 15.036 11.4846C14.7228 11.4703 14.3663 11.4667 14.0098 11.4667C13.6534 11.4667 13.0737 11.5993 12.584 12.1332C12.0925 12.6653 10.7117 13.9536 10.7117 16.5748C10.7117 19.1942 12.6272 21.7258 12.8955 22.0823C13.1637 22.4371 16.6671 27.8157 22.0337 30.1215C23.3119 30.6698 24.3075 30.9976 25.0834 31.2413C26.3652 31.648 27.5318 31.5907 28.4536 31.4527C29.4797 31.3004 31.6185 30.1645 32.0649 28.9211C32.5096 27.6777 32.5096 26.6117 32.3764 26.3895C32.2432 26.1673 31.8867 26.0347 31.3502 25.7678H31.352ZM21.5909 39.0315H21.5837C18.3961 39.032 15.2671 38.1793 12.5246 36.5625L11.8765 36.1791L5.13982 37.9385L6.93831 31.4026L6.51524 30.7325C4.73321 27.9094 3.79014 24.6422 3.79501 21.3083C3.79861 11.5438 11.7811 3.59953 21.5981 3.59953C26.3508 3.59953 30.8191 5.44494 34.1785 8.79177C35.8354 10.434 37.1487 12.3869 38.0424 14.5374C38.9361 16.688 39.3924 18.9936 39.3849 21.3209C39.3813 31.0854 31.3988 39.0315 21.5909 39.0315ZM36.7349 6.2494C34.7513 4.2623 32.3912 2.68674 29.7913 1.614C27.1915 0.54127 24.4035 -0.00730326 21.5891 7.3418e-05C9.78997 7.3418e-05 0.183629 9.5586 0.180029 21.3065C0.174561 25.0453 1.16006 28.7193 3.03709 31.958L0 43L11.349 40.0366C14.4885 41.7389 18.0067 42.6308 21.5819 42.6309H21.5909C33.39 42.6309 42.9963 33.0724 42.9999 21.3227C43.0086 18.5228 42.4594 15.749 41.384 13.1617C40.3086 10.5744 38.7285 8.22501 36.7349 6.2494Z" fill="black"/>
</svg>
