<svg width="76" height="133" viewBox="0 0 76 133" fill="none" xmlns="http://www.w3.org/2000/svg">
<path d="M49.9625 45.5372C49.9625 44.3547 49.0038 43.396 47.8212 43.396H15.8452C14.6627 43.396 13.704 44.3547 13.704 45.5372C13.704 46.7198 14.6627 47.6785 15.8452 47.6785H47.8212C49.0038 47.6785 49.9625 46.7198 49.9625 45.5372Z" fill="white"/>
<path d="M45.3945 54.6733C45.3945 53.4908 44.4358 52.532 43.2532 52.532H20.4132C19.2307 52.532 18.272 53.4908 18.272 54.6733C18.272 55.8558 19.2307 56.8145 20.4132 56.8145H43.2532C44.4358 56.8145 45.3945 55.8558 45.3945 54.6733Z" fill="white"/>
<path d="M45.5372 38.5425C49.2368 38.5425 52.2465 35.5328 52.2465 31.8333C52.2465 28.1338 49.2368 25.124 45.5372 25.124H18.1292C14.4297 25.124 11.42 28.1338 11.42 31.8333C11.42 35.5328 14.4297 38.5425 18.1292 38.5425H45.5372ZM15.7025 31.8333C15.7025 30.4951 16.7911 29.4065 18.1292 29.4065H45.5372C46.8754 29.4065 47.964 30.4951 47.964 31.8333C47.964 33.1714 46.8754 34.26 45.5372 34.26H18.1292C16.7911 34.26 15.7025 33.1714 15.7025 31.8333Z" fill="white"/>
<path d="M70.4394 119.094C69.9912 113.463 67.4834 108.407 63.6665 104.68V4.42525C63.6665 1.98508 61.6814 0 59.2413 0H4.42525C1.98508 0 0 1.98508 0 4.42525V127.761C0 130.201 1.98508 132.187 4.42525 132.187H68.3773C72.0768 132.187 75.0865 129.177 75.0865 125.477C75.0865 122.497 73.1329 119.966 70.4394 119.094ZM66.1076 118.768H29.535C30.5999 109.62 38.3921 102.495 47.8213 102.495C57.2505 102.495 65.0426 109.62 66.1076 118.768ZM21.012 127.904H4.42525C4.34645 127.904 4.2825 127.84 4.2825 127.761V4.42525C4.2825 4.34645 4.34645 4.2825 4.42525 4.2825H59.2413C59.3201 4.2825 59.384 4.34645 59.384 4.42525V101.389C56.575 99.7186 53.3782 98.6372 49.9625 98.316V93.3586H52.3893C53.5718 93.3586 54.5305 92.3998 54.5305 91.2173C54.5305 90.0348 53.5718 89.0761 52.3893 89.0761H43.2533C42.0707 89.0761 41.112 90.0348 41.112 91.2173C41.112 92.3998 42.0707 93.3586 43.2533 93.3586H45.68V98.316C34.7628 99.3426 26.0756 108.133 25.2031 119.094C22.5097 119.966 20.556 122.497 20.556 125.477C20.556 126.333 20.7187 127.151 21.012 127.904ZM68.3773 127.904H27.2653C25.9271 127.904 24.8385 126.815 24.8385 125.477C24.8385 124.139 25.9271 123.051 27.2653 123.051H68.3773C69.7154 123.051 70.804 124.139 70.804 125.477C70.804 126.815 69.7154 127.904 68.3773 127.904Z" fill="white"/>
</svg>
