<svg width="173" height="107" viewBox="0 0 173 107" fill="none" xmlns="http://www.w3.org/2000/svg">
<path d="M142.977 83.8849C139.997 83.8849 137.572 86.3102 137.572 89.2909C137.572 92.2716 139.997 94.6968 142.977 94.6968C145.958 94.6968 148.383 92.2716 148.383 89.2909C148.383 86.3102 145.958 83.8849 142.977 83.8849Z" fill="white"/>
<path d="M35.6045 83.8849C32.6238 83.8849 30.1986 86.3102 30.1986 89.2909C30.1986 92.2716 32.6238 94.6968 35.6045 94.6968C38.5852 94.6968 41.0105 92.2716 41.0105 89.2909C41.0105 86.3102 38.5852 83.8849 35.6045 83.8849Z" fill="white"/>
<path d="M165.642 48.5832L145.075 39.442L130.02 6.82228C128.107 2.67761 123.921 0 119.357 0H8.76133C3.93029 0 0 3.93029 0 8.76132V83.3258C0 88.1568 3.93029 92.0871 8.76133 92.0871H18.1184C19.4632 100.528 26.7914 107 35.6045 107C44.4177 107 51.7459 100.528 53.0906 92.0871H125.491C126.836 100.528 134.164 107 142.977 107C151.79 107 159.118 100.528 160.463 92.0871H163.855C168.686 92.0871 172.616 88.1568 172.616 83.3258V59.3149C172.617 54.6785 169.879 50.466 165.642 48.5832ZM130.176 20.5052L138.607 38.7735H112.965V20.5052H130.176ZM35.6045 101.408C28.9236 101.408 23.4878 95.9719 23.4878 89.2909C23.4878 82.6096 28.9236 77.1742 35.6045 77.1742C42.2855 77.1742 47.7213 82.6096 47.7213 89.2909C47.7213 95.9719 42.2855 101.408 35.6045 101.408ZM142.977 101.408C136.296 101.408 130.861 95.9723 130.861 89.2909C130.861 82.6096 136.296 77.1742 142.977 77.1742C149.658 77.1742 155.094 82.6096 155.094 89.2909C155.094 95.9719 149.658 101.408 142.977 101.408ZM167.024 74.5645H163.855C162.311 74.5645 161.059 75.816 161.059 77.3606C161.059 78.9052 162.311 80.1568 163.855 80.1568H167.024V83.3258C167.024 85.0732 165.603 86.4948 163.855 86.4948H160.463C159.119 78.0541 151.791 71.5819 142.977 71.5819C134.164 71.5819 126.836 78.0541 125.491 86.4948H53.0906C51.7459 78.0541 44.4177 71.5819 35.6045 71.5819C26.7914 71.5819 19.4632 78.0541 18.1184 86.4948H8.76133C7.01391 86.4948 5.59234 85.0732 5.59234 83.3258V80.1568H14.7265C16.2707 80.1568 17.5227 78.9052 17.5227 77.3606C17.5227 75.816 16.2707 74.5645 14.7265 74.5645H5.59234V8.76132C5.59234 7.01391 7.01391 5.59233 8.76133 5.59233H119.357C121.748 5.59233 123.94 6.99526 124.942 9.16584L127.595 14.9129H101.221C98.0348 14.9129 95.4425 17.5051 95.4425 20.6916V32.622C95.4425 39.0975 100.711 44.3659 107.186 44.3659H142.384L159.748 52.0833L159.308 52.3502C156.709 53.9284 155.094 56.798 155.094 59.8391V65.4303C155.094 66.9749 156.346 68.2265 157.89 68.2265H167.024V74.5645ZM107.373 20.5052V38.7735H107.186C103.794 38.7735 101.035 36.0139 101.035 32.622V20.6916C101.035 20.5891 101.118 20.5052 101.221 20.5052H107.373ZM167.024 62.6341H160.686V59.8395C160.686 58.7396 161.271 57.7017 162.211 57.1305L165.423 55.1803C166.432 56.2921 167.024 57.7569 167.024 59.3145V62.6341Z" fill="white"/>
<path d="M122.099 74.5644H56.4826C54.9383 74.5644 53.6864 75.816 53.6864 77.3606C53.6864 78.9052 54.9383 80.1567 56.4826 80.1567H122.099C123.644 80.1567 124.895 78.9052 124.895 77.3606C124.895 75.816 123.644 74.5644 122.099 74.5644Z" fill="white"/>
<path d="M44.5522 11.9302C43.008 11.9302 41.7561 13.1818 41.7561 14.7264V26.8431H38.4007V14.7264C38.4007 13.1818 37.1487 11.9302 35.6045 11.9302C34.0603 11.9302 32.8083 13.1818 32.8083 14.7264V26.8431H29.4529V14.7264C29.4529 13.1818 28.201 11.9302 26.6568 11.9302C25.1125 11.9302 23.8606 13.1818 23.8606 14.7264V32.6219C23.8606 37.4529 27.7909 41.3832 32.6219 41.3832H32.8083V65.4302C32.8083 66.9748 34.0603 68.2264 35.6045 68.2264C37.1487 68.2264 38.4007 66.9748 38.4007 65.4302V41.3832H38.5871C43.4181 41.3832 47.3484 37.4529 47.3484 32.6219V14.7264C47.3484 13.1818 46.0965 11.9302 44.5522 11.9302ZM41.7561 32.6219C41.7561 34.3693 40.3345 35.7909 38.5871 35.7909H32.6219C30.8745 35.7909 29.4529 34.3693 29.4529 32.6219V32.4355H41.7561V32.6219Z" fill="white"/>
<path d="M56.4826 68.2264C58.0268 68.2264 59.2787 66.9748 59.2787 65.4302V53.3135H64.8919C66.5939 53.3135 68.2011 52.5686 69.3013 51.2701C70.4015 49.9715 70.8716 48.264 70.592 46.5848L65.6544 16.9585C65.169 14.0449 62.6725 11.9302 59.7038 11.9302C56.3856 11.9302 53.6864 14.6295 53.6864 17.9476V65.4302C53.6864 66.9748 54.9383 68.2264 56.4826 68.2264ZM59.2787 17.9476C59.2787 17.7135 59.4692 17.5226 59.719 17.5226C59.9278 17.5226 60.1042 17.6717 60.1385 17.8779L65.0761 47.5042C65.0799 47.5277 65.0903 47.5896 65.0347 47.6552C64.9784 47.7212 64.9158 47.7212 64.8919 47.7212H59.2787V17.9476Z" fill="white"/>
</svg>
