<svg width="123" height="123" viewBox="0 0 123 123" fill="none" xmlns="http://www.w3.org/2000/svg">
<path d="M121.528 75.2903C117.846 70.3801 114.163 70.3801 105.161 75.0858L87.5656 85.9291C85.1105 87.3611 79.5865 87.7704 74.4718 87.7704C75.4948 85.9291 75.0855 83.6785 73.2442 81.0188C69.9708 76.3131 64.4468 73.449 58.5135 73.449H50.5344C46.2379 73.449 42.146 72.2214 38.8726 69.7663C31.4902 64.2296 19.9461 70.2542 14.3214 73.8477V69.5618H0V122.756H14.3214V116.618H40.9184C45.0104 116.618 49.3068 116.209 53.3985 116.004L79.9955 111.912C81.0186 111.912 82.0414 111.708 82.8599 111.503C85.315 111.094 87.5656 109.866 89.6115 108.025L120.505 83.4737C122.96 81.4281 123.37 77.7454 121.528 75.2903ZM10.2295 118.664H4.0917V73.6535H10.2295V76.7224V116.618V118.664ZM118.05 80.8143L86.9519 104.956L86.7473 105.161C85.3153 106.388 83.883 107.207 82.2464 107.411H82.0419C81.2236 107.616 80.6098 107.616 79.7913 107.616L52.785 111.708C48.8978 112.322 44.8059 112.526 40.9187 112.526H14.3214V78.7682C19.2317 75.2901 30.6889 68.7433 36.4175 73.2442C40.3047 76.1086 45.4196 77.7452 50.5344 77.7452H58.5135C63.2192 77.7452 67.5157 79.791 70.1753 83.883C70.9936 85.1105 71.1984 86.3381 70.9936 86.7474C70.3798 87.7704 67.9247 88.1794 65.2651 88.3842C64.9894 88.3842 64.7146 88.3842 64.4468 88.3842C63.9193 88.3842 63.4218 88.3842 63.0147 88.3842H44.6014C38.2591 88.3842 34.3716 91.4531 34.3716 96.5678C34.3716 97.7954 35.1899 98.6137 36.4175 98.6137C37.645 98.6137 38.4633 97.7954 38.4633 96.5678C38.4633 95.5448 38.4633 92.4759 44.6011 92.4759H62.81C63.2341 92.4759 63.7599 92.4759 64.4468 92.4759C64.7542 92.4759 65.0903 92.4759 65.4698 92.4759C65.6743 92.4759 66.0836 92.4759 66.4929 92.4759C76.1088 92.6804 85.1108 92.4759 89.8165 90.0208L107.412 79.1773C116.004 74.8808 116.823 75.9039 118.46 78.359C118.868 78.973 118.868 80.2005 118.05 80.8143Z" fill="white"/>
<path d="M15.9583 64.6513C16.3676 65.0606 16.9814 65.4696 17.5952 65.4696H105.161C105.979 65.4696 106.593 65.0603 106.798 64.4466L114.163 54.2168C114.572 53.603 114.777 52.7848 114.368 52.171C113.958 51.5572 113.345 51.1479 112.526 51.1479H108.387C107.345 26.7924 87.7796 7.22749 63.4241 6.18454V4.0917H67.516C68.7436 4.0917 69.5619 3.27341 69.5619 2.04585C69.5619 0.818292 68.7433 0 67.5158 0H55.2402C54.0126 0 53.1943 0.818292 53.1943 2.04585C53.1943 3.27341 54.0126 4.0917 55.2402 4.0917H59.3321V6.18454C34.9766 7.22749 15.4117 26.7924 14.3687 51.1479H10.2296C9.41129 51.1479 8.59275 51.7617 8.38824 52.3755C8.18373 52.9893 8.18373 53.8076 8.59275 54.4213L15.9583 64.6513ZM61.378 10.2297C84.4971 10.2297 103.319 28.4386 104.343 51.1484H18.4135C19.641 28.4383 38.4634 10.2297 61.378 10.2297ZM16.3674 55.2401H106.388H108.434L104.138 61.3779H18.618L14.3215 55.2401H16.3674Z" fill="white"/>
<path d="M61.3781 14.3215C47.6704 14.3215 34.781 21.6868 27.6202 33.7579C27.2109 34.7809 27.4157 36.0085 28.4385 36.6223C28.8478 36.8268 29.0523 36.8268 29.4616 36.8268C30.2798 36.8268 30.8936 36.4175 31.3029 35.8037C37.4407 25.165 49.1025 18.4134 61.3781 18.4134C62.6056 18.4134 63.4239 17.5951 63.4239 16.3676C63.4239 15.14 62.6056 14.3215 61.3781 14.3215Z" fill="white"/>
</svg>
