<svg id="Layer_1" data-name="Layer 1" xmlns="http://www.w3.org/2000/svg" viewBox="0 0 185.64 172.96"><defs><style>.cls-1{fill:#31b44a;}.cls-2{fill:none;stroke:#231f20;stroke-miterlimit:10;}.cls-3{font-size:4px;font-family:Roboto-Regular, Roboto;}</style></defs><g id="Layer_2" data-name="Layer 2"><g id="Layer_1-2" data-name="Layer 1-2"><path class="cls-1" d="M166.24,60.73S135.31,42.43,129,87c-3.38,18.33-9.12,22.61-15.74,27.88-2.31,1.84-.11.09-.18.13-1.55,1.1-8.16,5.9-22.86-1.93-.21-.3-28.37-17.62-44,18.65-8.33,21.57-15.16,50-47.86,37.46-.61.44-29-13.65-31.63-14.07s-16.33-5.07-32.57-4.08c0,0-26.57,1-40.19-13.84.22.31-19-18.92-20-40.38-.32-1.12-1.25-17.69,13-37.67,5.69-6.81,25.75-26.76,13.61-60.39-1.75-4.38-13.66-29.12,16.17-35.89,1.53.27,57.91-16.63,67.63-48.57,1.91-4.17,9.72-31.94,50.89-10.26-2.4-1.22,22.7,15.8,52.15,6.55.77-.32,39.89-13.34,46.74,23.85.22.31.78,8-.2,23.08.56,1.47-8.44,23.9,26,59.68,16.45,14.61,27,16,24.45,35.29C184.33,53,180,69,166.24,60.73Z"/></g></g><path class="cls-1" d="M169.51,7.88a5.47,5.47,0,0,0-3.87,2.73,5.26,5.26,0,0,0-.43,2.75,7.8,7.8,0,0,0,2.95,5.39,8.27,8.27,0,0,0,5.94,1.67,5.21,5.21,0,0,0,1.61-.4A4.75,4.75,0,0,0,178,17.41a9.69,9.69,0,0,0,.53-3.51,8.17,8.17,0,0,0-.65-3.46C176.43,7.36,172.43,7.25,169.51,7.88Z"/><path class="cls-1" d="M140.68,103.26c-1.5-10-1.49-25.31,9.62-34.71a.44.44,0,0,1,.18-.09c.84-.24,3.82-2.58,8.59,2.4l.1.15c1.63,1.93,5.44,5.59-4.74,13.17,0,0-7.72,4.95-11.1,19.06A1.34,1.34,0,0,1,140.68,103.26Z"/><path class="cls-2" d="M89,123.16a2.71,2.71,0,0,1,2.9,3.34l-.46,19.27a3.05,3.05,0,0,1-.69,2.26,2.92,2.92,0,0,1-1.52.58,78.09,78.09,0,0,1-22.38.64,9.52,9.52,0,0,1-5.26-1.76c-1.82-1.55-2.32-4.13-2.57-6.51-.54-5.2-2.46-16.11,4-18.29C70.51,120.18,81.46,122,89,123.16Z"/><text class="cls-3" transform="translate(70.33 131.96)">100%<tspan x="-3.4" y="4.8">Makanan</tspan><tspan x="-0.25" y="9.6">Sehat</tspan></text></svg>